<?xml version="1.0" standalone="no"?><!DOCTYPE svg PUBLIC "-//W3C//DTD SVG 1.1//EN" "http://www.w3.org/Graphics/SVG/1.1/DTD/svg11.dtd"><svg t="1765624450951" class="icon" viewBox="0 0 1024 1024" version="1.1" xmlns="http://www.w3.org/2000/svg" p-id="16131" xmlns:xlink="http://www.w3.org/1999/xlink" width="200" height="200"><path d="M649.13027234 497.5692545h18.05752691L664.84038441 519.63800925h-17.99514984l2.28503777-22.06875475z m152.45211893-123.80703817v276.47556735c-0.61231374 17.46048917-9.4876805 33.07003412-25.07813042 43.43990471L537.06540041 831.91419907c-13.79297173 7.96517065-36.36583511 7.96517065-50.15880685 0L247.47155212 693.67768838C232.94023949 684.15054482 223.465289 668.78796219 222.39214869 650.23778368V373.76221632c0-15.92779533 11.2851587-35.47728004 25.07813044-43.43990471L486.90913956 192.08580093c13.79169873-7.96517065 36.36456211-7.96517065 50.15753385 0L776.50426085 330.32231162c14.48421157 9.77665186 24.51928274 26.68083937 25.07940342 43.4399047z m-122.39909848 234.82295683l-83.55218334-48.34732564C539.89655583 649.45870674 416.80494452 605.85840386 415.45556289 512.001273c4.49369545-101.83885053 129.73158737-131.66782272 180.17045455-48.24293952l83.55218335-48.34859865C570.29074071 240.24090335 317.79088442 323.48247431 318.9238558 512c4.83995187 203.23724253 264.29803461 263.17270123 360.259437 96.58390015z m19.9479342-126.3835933h-14.32508637L687.38906075 457.26093359h-15.91251931l-2.65293521 24.94064627h-18.10208196L653.30317141 457.26093359H637.3906521l-2.65293521 24.94064627H619.56863049v15.36767464h13.53455241L630.75576806 519.63800925H615.11312508v15.36767466h14.00810898l-2.90244352 27.27787709h16.21167468l2.82479043-27.27787709h17.95059476L660.30467989 562.283561h16.21167468l2.82351741-27.27787709H694.67572159V519.63800925h-13.74459766l2.28376476-22.06875475H699.131227v-15.36767464z" fill="#0960bd" p-id="16132"></path></svg>