<?xml version="1.0" standalone="no"?><!DOCTYPE svg PUBLIC "-//W3C//DTD SVG 1.1//EN" "http://www.w3.org/Graphics/SVG/1.1/DTD/svg11.dtd"><svg t="1765624818772" class="icon" viewBox="0 0 1024 1024" version="1.1" xmlns="http://www.w3.org/2000/svg" p-id="27604" xmlns:xlink="http://www.w3.org/1999/xlink" width="200" height="200"><path d="M426.666667 298.666667h85.333333v341.333333h-85.333333V298.666667z m128 0h256a42.666667 42.666667 0 0 1 42.666666 42.666666v256a42.666667 42.666667 0 0 1-42.666666 42.666667h-256v-213.333333h85.333333v128h128V384h-213.333333V298.666667z m341.333333 0h85.333333v341.333333h-85.333333V298.666667zM42.666667 298.666667h298.666666a42.666667 42.666667 0 0 1 42.666667 42.666666v298.666667H298.666667V384H256v256H170.666667V384H128v256H42.666667V298.666667z m0 384h938.666666v128H42.666667v-128z" p-id="27605"></path></svg>