<?xml version="1.0" standalone="no"?><!DOCTYPE svg PUBLIC "-//W3C//DTD SVG 1.1//EN" "http://www.w3.org/Graphics/SVG/1.1/DTD/svg11.dtd"><svg t="1765624846239" class="icon" viewBox="0 0 1024 1024" version="1.1" xmlns="http://www.w3.org/2000/svg" p-id="28583" xmlns:xlink="http://www.w3.org/1999/xlink" width="200" height="200"><path d="M734.848 463.808l179.84 111.424v218.016L720 913.28 528 802.432 336 913.28l-191.744-120V568l192.576-119.424-0.96-0.576V226.24L528 114.24l207.84 120v228.992z" fill="#FFFFFF" p-id="28584"></path><path d="M544 342.752l159.84-92.288-0.16 205.824L544 548.576V342.752z m-32.16 0v205.824l-159.68-92.288-0.16-205.824 159.84 92.288z" fill="#27A2DF" fill-opacity=".3" p-id="28585"></path><path d="M562.144 576l157.696-91.04L877.536 576 719.84 667.04 562.144 576z m-384 0l157.696-91.04L493.536 576 335.84 667.04 178.144 576z" fill="#27A2DF" fill-opacity=".5" p-id="28586"></path><path d="M527.84 558.848L719.84 448l207.84 120v240L719.84 928l-192-110.848L335.84 928 128 808V568l207.84-120 192 110.848z m-176 322.976l159.84-92.288V602.464l-159.84 92.288v187.072z m-32 0V694.72L160 602.464v187.072l159.84 92.288z m16-214.784L493.536 576 335.84 484.96 178.144 576l157.696 91.04z m400 214.784l159.84-92.288V602.464l-159.84 92.288v187.072z m-32 0V694.72L544 602.464v187.072l159.84 92.288z m16-214.784L877.536 576 719.84 484.96 562.144 576l157.696 91.04z" fill="#5C6C7C" p-id="28587"></path><path d="M543.84 548.576l159.84-92.288V250.464l-159.84 92.288v205.824z m-32 0V342.752L352 250.464v205.824l159.84 92.288z m16-233.536L685.536 224 527.84 132.96 370.144 224l157.696 91.04z m0-219.04l207.84 120v258.784l-207.84 120-207.84-120V216L527.84 96z" fill="#5C6C7C" p-id="28588"></path></svg>