<?xml version="1.0" standalone="no"?><!DOCTYPE svg PUBLIC "-//W3C//DTD SVG 1.1//EN" "http://www.w3.org/Graphics/SVG/1.1/DTD/svg11.dtd"><svg t="1765624296511" class="icon" viewBox="0 0 1024 1024" version="1.1" xmlns="http://www.w3.org/2000/svg" p-id="10107" xmlns:xlink="http://www.w3.org/1999/xlink" width="200" height="200"><path d="M895.856054 287.89204V703.736099h-63.976009V287.89204h-127.952018A95.964013 95.964013 0 0 1 607.964013 191.928027V63.976009H256.095964a63.976009 63.976009 0 0 0-63.976009 63.976009v575.784081H128.143946V127.952018a127.952018 127.952018 0 0 1 127.952018-127.952018h351.868049L895.856054 287.89204zM86.943396 978.193178a75.235787 75.235787 0 0 1-7.101337-28.725228h48.941647a36.978133 36.978133 0 0 0 16.313882 24.566787c4.478321 3.134824 9.788329 5.565913 15.930027 7.293265 6.077721 1.791328 12.923154 2.623016 20.408347 2.623016 10.492065 0 19.320755-1.471448 26.422091-4.47832a35.762589 35.762589 0 0 0 16.313883-12.34737 32.371861 32.371861 0 0 0 5.43796-18.553043 24.758715 24.758715 0 0 0-9.788329-20.856179c-6.461577-5.118081-16.313882-9.212545-29.556916-12.347369l-39.60115-9.14857a110.038735 110.038735 0 0 1-34.483069-13.690865 64.039985 64.039985 0 0 1-22.455579-23.479196 68.326378 68.326378 0 0 1-7.869049-33.523429c0-15.610146 4.030489-29.237036 12.155442-40.880669 8.124953-11.579658 19.384731-20.600275 33.779333-26.997876 14.330626-6.397601 30.900412-9.532425 49.645383-9.532425 19.512683 0 36.082469 3.1988 49.901287 9.724353 13.818818 6.525553 24.502811 15.290266 31.988004 26.230164 7.677121 10.875922 11.899538 22.967387 12.795202 36.210421h-47.982007a35.826565 35.826565 0 0 0-7.677121-16.505811 39.92103 39.92103 0 0 0-15.802074-11.579657 59.049856 59.049856 0 0 0-23.607148-4.350369c-13.882794 0-24.822691 3.1988-32.819692 9.724354a30.196676 30.196676 0 0 0-11.771586 24.566787c0 7.741097 3.070848 14.074722 9.148569 19.192803a62.056729 62.056729 0 0 0 25.910284 11.195801l39.665126 9.14857c13.882794 3.1988 25.97426 7.677121 36.210421 13.498937 10.236161 5.757841 18.233163 13.434962 23.991003 22.903412 5.757841 9.468449 8.636761 21.431963 8.636761 35.826565 0 15.802074-4.030489 29.81282-12.027489 41.968262a77.794827 77.794827 0 0 1-34.483069 28.085468c-14.970386 6.717481-33.267525 10.108209-54.891416 10.108209-16.249906 0-30.45258-1.91928-42.544046-5.757841a89.822317 89.822317 0 0 1-30.580532-16.121954 72.29289 72.29289 0 0 1-18.553043-23.991003z m273.433463-142.666501a110.806448 110.806448 0 0 0-6.589529 40.496814v31.668125c0 15.738098 2.175184 29.109084 6.589529 40.112957a53.292015 53.292015 0 0 0 19.06485 25.078596 54.123704 54.123704 0 0 0 30.580533 8.444833c9.724353 0 18.297139-1.855304 25.654379-5.629889a44.783206 44.783206 0 0 0 17.465451-15.930026 51.052855 51.052855 0 0 0 7.485193-23.223291h48.941647v4.862176a81.249531 81.249531 0 0 1-14.458578 43.11983c-8.764713 12.34737-20.472323 22.071723-35.186805 29.045109a115.796576 115.796576 0 0 1-50.285143 10.492065c-23.031363 0-42.48007-4.606273-58.474073-13.882794a91.101837 91.101837 0 0 1-36.530301-40.048982c-8.316881-17.401474-12.411346-38.193677-12.411345-62.440584v-31.860053c0-24.310883 4.222417-45.103086 12.603273-62.632513a92.125453 92.125453 0 0 1 36.466325-40.496813c16.18593-9.468449 35.634637-14.202674 58.346121-14.202674 14.010746 0 26.9339 2.047232 38.833437 6.205673 11.963514 3.966513 22.391603 9.788329 31.284268 17.401474a84.704236 84.704236 0 0 1 29.812821 61.672873V848.449831h-48.941647a54.379608 54.379608 0 0 0-7.677121-24.310883 44.783206 44.783206 0 0 0-17.465451-16.697738 51.372735 51.372735 0 0 0-25.462451-6.205673 52.076471 52.076471 0 0 0-30.388605 8.828689 55.531176 55.531176 0 0 0-19.256778 25.462451z m166.913407 113.941273a72.29289 72.29289 0 0 0 25.65438 52.652255c8.252905 6.909409 18.425091 12.283394 30.580532 16.121954 12.155442 3.902537 26.230164 5.821817 42.544046 5.821817 21.623891 0 39.92103-3.390728 54.891416-10.108209 15.098338-6.717481 26.61402-16.121954 34.547045-28.149444 7.933025-12.091466 11.963514-26.102212 11.963513-41.968262 0-14.330626-2.87892-26.230164-8.636761-35.826565a64.103961 64.103961 0 0 0-23.991003-22.839436 129.743346 129.743346 0 0 0-36.210421-13.434961l-39.665126-9.212546a62.056729 62.056729 0 0 1-25.910284-11.259777 23.671123 23.671123 0 0 1-9.148569-19.128827c0-9.980257 3.902537-18.169187 11.771586-24.566787 7.997001-6.461577 18.936899-9.724353 32.819692-9.724354 9.084593 0 16.953642 1.471448 23.607148 4.350369a39.857054 39.857054 0 0 1 15.738098 11.579657 35.826565 35.826565 0 0 1 7.677121 16.505811h47.982007a69.797826 69.797826 0 0 0-12.795202-36.210421 77.410971 77.410971 0 0 0-31.988005-26.230164 115.988504 115.988504 0 0 0-49.901287-9.724353c-18.680995 0-35.250781 3.1988-49.645383 9.596401-14.330626 6.333625-25.590404 15.354242-33.715356 26.9339-8.124953 11.643634-12.155442 25.270524-12.155442 40.880669 0 12.859178 2.55904 24.054979 7.869049 33.523429 5.246033 9.532425 12.731226 17.273522 22.455579 23.479196 9.724353 6.077721 21.240035 10.683994 34.547045 13.626889l39.473198 9.212546c13.243034 3.134824 23.159315 7.229289 29.620892 12.347369a24.758715 24.758715 0 0 1 9.788329 20.856179c0 6.973385-1.855304 13.179058-5.437961 18.553043a35.698613 35.698613 0 0 1-16.313882 12.34737c-7.165313 3.006872-15.994002 4.478321-26.422092 4.47832-7.549169 0-14.330626-0.831688-20.472322-2.55904a53.54792 53.54792 0 0 1-15.930027-7.357241 36.978133 36.978133 0 0 1-16.313882-24.566787H527.354242z m224.043984 28.725228a75.235787 75.235787 0 0 1-7.037361-28.725228h48.877671a36.978133 36.978133 0 0 0 16.313882 24.566787c4.478321 3.134824 9.788329 5.565913 15.930026 7.293265 6.077721 1.791328 12.923154 2.623016 20.408347 2.623016 10.492065 0 19.320755-1.471448 26.422092-4.47832a35.698613 35.698613 0 0 0 16.313882-12.34737 32.371861 32.371861 0 0 0 5.437961-18.553043 24.758715 24.758715 0 0 0-9.724354-20.856179c-6.525553-5.118081-16.377858-9.212545-29.620892-12.347369l-39.537173-9.14857a110.038735 110.038735 0 0 1-34.547045-13.690865 64.103961 64.103961 0 0 1-22.455579-23.479196 68.326378 68.326378 0 0 1-7.869049-33.523429c0-15.610146 4.030489-29.237036 12.155441-40.880669 8.124953-11.579658 19.384731-20.600275 33.779333-26.997876 14.330626-6.397601 30.900412-9.532425 49.645383-9.532425 19.512683 0 36.146445 3.1988 49.901287 9.724353 13.818818 6.525553 24.502811 15.290266 31.988004 26.230164 7.677121 10.875922 11.899538 22.967387 12.795202 36.210421h-47.982006a35.826565 35.826565 0 0 0-7.677122-16.505811 39.857054 39.857054 0 0 0-15.802074-11.579657 59.049856 59.049856 0 0 0-23.607147-4.350369c-13.882794 0-24.758715 3.1988-32.755717 9.724354a30.196676 30.196676 0 0 0-11.835561 24.566787c0 7.741097 3.070848 14.074722 9.148569 19.192803a62.056729 62.056729 0 0 0 25.910284 11.195801l39.665125 9.14857c13.94677 3.1988 25.97426 7.677121 36.210421 13.498937 10.236161 5.757841 18.233163 13.434962 23.991004 22.903412 5.757841 9.468449 8.636761 21.431963 8.636761 35.826565 0 15.802074-3.966513 29.81282-11.963514 41.968262a77.858803 77.858803 0 0 1-34.547045 28.085468c-14.970386 6.717481-33.267525 10.108209-54.891415 10.108209-16.249906 0-30.45258-1.91928-42.544046-5.757841a89.822317 89.822317 0 0 1-30.580533-16.121954 72.356866 72.356866 0 0 1-18.553042-23.991003z" fill="#000000" p-id="10108"></path></svg>